<svg width="199" height="48" viewBox="0 0 199 48" fill="none" xmlns="http://www.w3.org/2000/svg">
<path d="M37.0565 11.1631C36.6243 10.7309 36.1921 10.2986 35.7599 9.86642C34.4632 8.48331 33.0801 7.10021 31.3512 6.23577C29.363 5.19844 27.2019 5.45777 25.0408 5.45777C21.7559 5.45777 13.5437 5.45777 8.70288 5.45777L11.9878 9.86642C17.9524 9.86642 27.2883 9.86642 31.6105 9.86642C33.4259 9.86642 34.9819 10.2122 36.4514 11.1631C36.7107 11.2495 36.9701 11.2495 37.0565 11.1631Z" fill="#66C61C"/>
<path d="M40.6872 18.2517C40.255 17.8195 39.8227 17.3873 39.3905 16.955C38.0939 15.5719 36.7108 14.1888 34.9819 13.3244C32.9937 12.2871 30.8326 12.5464 28.6715 12.5464C25.8188 12.5464 18.9897 12.5464 14.1489 12.5464L17.4337 16.955C23.3119 16.955 31.3512 16.955 35.3277 16.955C37.143 16.955 38.699 17.3008 40.1685 18.2517C40.3414 18.3381 40.5143 18.3381 40.6872 18.2517Z" fill="#4CA30D"/>
<path d="M44.75 25.167C44.3178 24.7348 43.8856 24.3025 43.4534 23.8703C42.1567 22.4872 40.7736 21.1041 39.0447 20.2397C37.0565 19.2023 34.8954 19.4617 32.7343 19.4617C30.0545 19.4617 24.1764 19.4617 19.4219 19.4617L22.7068 23.8703C28.4121 23.8703 35.6734 23.8703 39.3041 23.8703C41.1194 23.8703 42.6754 24.2161 44.1449 25.167C44.4042 25.2534 44.5771 25.3399 44.75 25.167Z" fill="#3B7C0F"/>
<path d="M8.35718 36.8368C8.7894 37.269 9.22162 37.7012 9.65384 38.1335C10.9505 39.5166 12.3336 40.8997 14.0625 41.7641C16.0507 42.8014 18.2118 42.5421 20.3729 42.5421H36.7108L33.4259 38.1335C27.4613 38.1335 18.1254 38.1335 13.8032 38.1335C11.9878 38.1335 10.4318 37.7877 8.96228 36.8368C8.70295 36.7504 8.53007 36.7504 8.35718 36.8368Z" fill="#66C61C"/>
<path d="M4.72644 29.7487C5.15866 30.1809 5.59088 30.6131 6.0231 31.0453C7.31976 32.4284 8.70286 33.8116 10.4317 34.676C12.42 35.7133 14.5811 35.454 16.7422 35.454H31.2648L27.9799 31.0453C22.1017 31.0453 14.0624 31.0453 10.086 31.0453C8.27064 31.0453 6.71465 30.6996 5.2451 29.7487C5.07221 29.6622 4.89933 29.6622 4.72644 29.7487Z" fill="#4CA30D"/>
<path d="M0.75 22.7465C1.18222 23.1787 1.61444 23.6109 2.04666 24.0431C3.34332 25.4262 4.72643 26.8094 6.45531 27.6738C8.44352 28.7111 10.6046 28.4518 12.7657 28.4518H26.0781L22.7932 24.0431C17.0879 24.0431 9.82662 24.0431 6.19598 24.0431C4.38065 24.0431 2.82465 23.6974 1.35511 22.7465C1.09577 22.66 0.922888 22.66 0.75 22.7465Z" fill="#3B7C0F"/>
<path d="M54.682 14.0081V34.0001H59.078V25.7401H67.45V22.3241H59.078V17.7041H68.738V14.0081H54.682Z" fill="#101828"/>
<path d="M79.7637 25.2081H73.2957C73.3143 24.9281 73.3703 24.6107 73.4637 24.2561C73.5757 23.9014 73.753 23.5654 73.9957 23.2481C74.257 22.9307 74.593 22.6694 75.0037 22.4641C75.433 22.2401 75.965 22.1281 76.5997 22.1281C77.5703 22.1281 78.289 22.3894 78.7557 22.9121C79.241 23.4347 79.577 24.2001 79.7637 25.2081ZM73.2957 27.7281H83.7397C83.8143 26.6081 83.721 25.5347 83.4597 24.5081C83.1983 23.4814 82.769 22.5667 82.1717 21.7641C81.593 20.9614 80.8463 20.3267 79.9317 19.8601C79.017 19.3747 77.9437 19.1321 76.7117 19.1321C75.6103 19.1321 74.6023 19.3281 73.6877 19.7201C72.7917 20.1121 72.017 20.6534 71.3637 21.3441C70.7103 22.0161 70.2063 22.8187 69.8517 23.7521C69.497 24.6854 69.3197 25.6934 69.3197 26.7761C69.3197 27.8961 69.4877 28.9227 69.8237 29.8561C70.1783 30.7894 70.673 31.5921 71.3077 32.2641C71.9423 32.9361 72.717 33.4587 73.6317 33.8321C74.5463 34.1867 75.573 34.3641 76.7117 34.3641C78.3543 34.3641 79.7543 33.9907 80.9117 33.2441C82.069 32.4974 82.9277 31.2561 83.4877 29.5201H79.9877C79.857 29.9681 79.5023 30.3974 78.9237 30.8081C78.345 31.2001 77.6543 31.3961 76.8517 31.3961C75.7317 31.3961 74.873 31.1067 74.2757 30.5281C73.6783 29.9494 73.3517 29.0161 73.2957 27.7281Z" fill="#101828"/>
<path d="M85.0898 23.9761C85.1458 23.0427 85.3791 22.2681 85.7898 21.6521C86.2005 21.0361 86.7231 20.5414 87.3578 20.1681C87.9925 19.7947 88.7018 19.5334 89.4858 19.3841C90.2885 19.2161 91.0911 19.1321 91.8938 19.1321C92.6218 19.1321 93.3591 19.1881 94.1058 19.3001C94.8525 19.3934 95.5338 19.5894 96.1498 19.8881C96.7658 20.1867 97.2698 20.6067 97.6618 21.1481C98.0538 21.6707 98.2498 22.3707 98.2498 23.2481V30.7801C98.2498 31.4334 98.2871 32.0587 98.3618 32.6561C98.4365 33.2534 98.5671 33.7014 98.7538 34.0001H94.7218C94.6471 33.7761 94.5818 33.5521 94.5258 33.3281C94.4885 33.0854 94.4605 32.8427 94.4418 32.6001C93.8071 33.2534 93.0605 33.7107 92.2018 33.9721C91.3431 34.2334 90.4658 34.3641 89.5698 34.3641C88.8791 34.3641 88.2351 34.2801 87.6378 34.1121C87.0405 33.9441 86.5178 33.6827 86.0698 33.3281C85.6218 32.9734 85.2671 32.5254 85.0058 31.9841C84.7631 31.4427 84.6418 30.7987 84.6418 30.0521C84.6418 29.2307 84.7818 28.5587 85.0618 28.0361C85.3605 27.4947 85.7338 27.0654 86.1818 26.7481C86.6485 26.4307 87.1711 26.1974 87.7498 26.0481C88.3471 25.8801 88.9445 25.7494 89.5418 25.6561C90.1391 25.5627 90.7271 25.4881 91.3058 25.4321C91.8845 25.3761 92.3978 25.2921 92.8458 25.1801C93.2938 25.0681 93.6485 24.9094 93.9098 24.7041C94.1711 24.4801 94.2925 24.1627 94.2738 23.7521C94.2738 23.3227 94.1991 22.9867 94.0498 22.7441C93.9191 22.4827 93.7325 22.2867 93.4898 22.1561C93.2658 22.0067 92.9951 21.9134 92.6778 21.8761C92.3791 21.8201 92.0525 21.7921 91.6978 21.7921C90.9138 21.7921 90.2978 21.9601 89.8498 22.2961C89.4018 22.6321 89.1405 23.1921 89.0658 23.9761H85.0898ZM94.2738 26.9161C94.1058 27.0654 93.8911 27.1867 93.6298 27.2801C93.3871 27.3547 93.1165 27.4201 92.8178 27.4761C92.5378 27.5321 92.2391 27.5787 91.9218 27.6161C91.6045 27.6534 91.2871 27.7001 90.9698 27.7561C90.6711 27.8121 90.3725 27.8867 90.0738 27.9801C89.7938 28.0734 89.5418 28.2041 89.3178 28.3721C89.1125 28.5214 88.9445 28.7174 88.8138 28.9601C88.6831 29.2027 88.6178 29.5107 88.6178 29.8841C88.6178 30.2387 88.6831 30.5374 88.8138 30.7801C88.9445 31.0227 89.1218 31.2187 89.3458 31.3681C89.5698 31.4987 89.8311 31.5921 90.1298 31.6481C90.4285 31.7041 90.7365 31.7321 91.0538 31.7321C91.8378 31.7321 92.4445 31.6014 92.8738 31.3401C93.3031 31.0787 93.6205 30.7707 93.8258 30.4161C94.0311 30.0427 94.1525 29.6694 94.1898 29.2961C94.2458 28.9227 94.2738 28.6241 94.2738 28.4001V26.9161Z" fill="#101828"/>
<path d="M105.536 19.5241V15.1841H101.56V19.5241H99.1519V22.1841H101.56V30.7241C101.56 31.4521 101.681 32.0401 101.924 32.4881C102.167 32.9361 102.493 33.2814 102.904 33.5241C103.333 33.7667 103.819 33.9254 104.36 34.0001C104.92 34.0934 105.508 34.1401 106.124 34.1401C106.516 34.1401 106.917 34.1307 107.328 34.1121C107.739 34.0934 108.112 34.0561 108.448 34.0001V30.9201C108.261 30.9574 108.065 30.9854 107.86 31.0041C107.655 31.0227 107.44 31.0321 107.216 31.0321C106.544 31.0321 106.096 30.9201 105.872 30.6961C105.648 30.4721 105.536 30.0241 105.536 29.3521V22.1841H108.448V19.5241H105.536Z" fill="#101828"/>
<path d="M109.5 14.0081V34.0001H113.476V26.4121C113.476 24.9374 113.718 23.8827 114.204 23.2481C114.689 22.5947 115.473 22.2681 116.556 22.2681C117.508 22.2681 118.17 22.5667 118.544 23.1641C118.917 23.7427 119.104 24.6294 119.104 25.8241V34.0001H123.08V25.0961C123.08 24.2001 122.996 23.3881 122.828 22.6601C122.678 21.9134 122.408 21.2881 122.016 20.7841C121.624 20.2614 121.082 19.8601 120.392 19.5801C119.72 19.2814 118.852 19.1321 117.788 19.1321C117.041 19.1321 116.276 19.3281 115.492 19.7201C114.708 20.0934 114.064 20.7001 113.56 21.5401H113.476V14.0081H109.5Z" fill="#101828"/>
<path d="M135.001 25.2081H128.533C128.552 24.9281 128.608 24.6107 128.701 24.2561C128.813 23.9014 128.991 23.5654 129.233 23.2481C129.495 22.9307 129.831 22.6694 130.241 22.4641C130.671 22.2401 131.203 22.1281 131.837 22.1281C132.808 22.1281 133.527 22.3894 133.993 22.9121C134.479 23.4347 134.815 24.2001 135.001 25.2081ZM128.533 27.7281H138.977C139.052 26.6081 138.959 25.5347 138.697 24.5081C138.436 23.4814 138.007 22.5667 137.409 21.7641C136.831 20.9614 136.084 20.3267 135.169 19.8601C134.255 19.3747 133.181 19.1321 131.949 19.1321C130.848 19.1321 129.84 19.3281 128.925 19.7201C128.029 20.1121 127.255 20.6534 126.601 21.3441C125.948 22.0161 125.444 22.8187 125.089 23.7521C124.735 24.6854 124.557 25.6934 124.557 26.7761C124.557 27.8961 124.725 28.9227 125.061 29.8561C125.416 30.7894 125.911 31.5921 126.545 32.2641C127.18 32.9361 127.955 33.4587 128.869 33.8321C129.784 34.1867 130.811 34.3641 131.949 34.3641C133.592 34.3641 134.992 33.9907 136.149 33.2441C137.307 32.4974 138.165 31.2561 138.725 29.5201H135.225C135.095 29.9681 134.74 30.3974 134.161 30.8081C133.583 31.2001 132.892 31.3961 132.089 31.3961C130.969 31.3961 130.111 31.1067 129.513 30.5281C128.916 29.9494 128.589 29.0161 128.533 27.7281Z" fill="#101828"/>
<path d="M140.495 19.5241V34.0001H144.471V27.4761C144.471 26.8227 144.537 26.2161 144.667 25.6561C144.798 25.0961 145.013 24.6107 145.311 24.2001C145.629 23.7707 146.039 23.4347 146.543 23.1921C147.047 22.9494 147.663 22.8281 148.391 22.8281C148.634 22.8281 148.886 22.8467 149.147 22.8841C149.409 22.9027 149.633 22.9307 149.819 22.9681V19.2721C149.502 19.1787 149.213 19.1321 148.951 19.1321C148.447 19.1321 147.962 19.2067 147.495 19.3561C147.029 19.5054 146.59 19.7201 146.179 20.0001C145.769 20.2614 145.405 20.5881 145.087 20.9801C144.77 21.3534 144.518 21.7641 144.331 22.2121H144.275V19.5241H140.495Z" fill="#101828"/>
<path d="M155.354 30.3041V17.7041H158.49C159.573 17.7041 160.478 17.8627 161.206 18.1801C161.953 18.4787 162.55 18.9174 162.998 19.4961C163.446 20.0747 163.764 20.7747 163.95 21.5961C164.156 22.3987 164.258 23.3041 164.258 24.3121C164.258 25.4134 164.118 26.3467 163.838 27.1121C163.558 27.8774 163.185 28.5027 162.718 28.9881C162.252 29.4547 161.72 29.7907 161.122 29.9961C160.525 30.2014 159.909 30.3041 159.274 30.3041H155.354ZM150.958 14.0081V34.0001H159.582C161.113 34.0001 162.438 33.7481 163.558 33.2441C164.697 32.7214 165.64 32.0121 166.386 31.1161C167.152 30.2201 167.721 29.1561 168.094 27.9241C168.468 26.6921 168.654 25.3481 168.654 23.8921C168.654 22.2307 168.421 20.7841 167.954 19.5521C167.506 18.3201 166.872 17.2934 166.05 16.4721C165.248 15.6507 164.286 15.0347 163.166 14.6241C162.065 14.2134 160.87 14.0081 159.582 14.0081H150.958Z" fill="#101828"/>
<path d="M180.196 25.2081H173.728C173.747 24.9281 173.803 24.6107 173.896 24.2561C174.008 23.9014 174.185 23.5654 174.428 23.2481C174.689 22.9307 175.025 22.6694 175.436 22.4641C175.866 22.2401 176.397 22.1281 177.032 22.1281C178.003 22.1281 178.721 22.3894 179.188 22.9121C179.674 23.4347 180.009 24.2001 180.196 25.2081ZM173.728 27.7281H184.172C184.247 26.6081 184.153 25.5347 183.892 24.5081C183.631 23.4814 183.201 22.5667 182.604 21.7641C182.025 20.9614 181.279 20.3267 180.364 19.8601C179.45 19.3747 178.376 19.1321 177.144 19.1321C176.043 19.1321 175.035 19.3281 174.12 19.7201C173.224 20.1121 172.45 20.6534 171.796 21.3441C171.143 22.0161 170.639 22.8187 170.284 23.7521C169.929 24.6854 169.752 25.6934 169.752 26.7761C169.752 27.8961 169.92 28.9227 170.256 29.8561C170.611 30.7894 171.105 31.5921 171.74 32.2641C172.375 32.9361 173.149 33.4587 174.064 33.8321C174.979 34.1867 176.006 34.3641 177.144 34.3641C178.787 34.3641 180.187 33.9907 181.344 33.2441C182.502 32.4974 183.36 31.2561 183.92 29.5201H180.42C180.289 29.9681 179.935 30.3974 179.356 30.8081C178.777 31.2001 178.087 31.3961 177.284 31.3961C176.164 31.3961 175.305 31.1067 174.708 30.5281C174.111 29.9494 173.784 29.0161 173.728 27.7281Z" fill="#101828"/>
<path d="M193.698 34.0001L198.598 19.5241H194.65L191.598 29.4081H191.542L188.49 19.5241H184.318L189.274 34.0001H193.698Z" fill="#101828"/>
</svg>
