<svg width="198" height="48" viewBox="0 0 198 48" fill="none" xmlns="http://www.w3.org/2000/svg">
<path d="M30.6789 2H13.8211L0.25 15.5711V32.4289L13.8211 46H30.6789L44.25 32.4289V15.5711L30.6789 2ZM16.1536 32.641L7.45966 23.947L16.1536 15.253C19.4404 11.9663 24.8476 11.9663 28.1344 15.253L36.8283 23.947L28.1344 32.641C24.8476 35.9277 19.5464 35.9277 16.1536 32.641Z" fill="#444CE7"/>
<path d="M63.59 34.2401C66.29 34.2401 68.51 32.8601 69.2 30.7901V34.0001H73.19V25.9001C73.19 24.0701 71.75 22.5101 69.8 22.5101H64.1V25.9001H68.15C68.66 25.9001 68.99 26.2301 68.99 26.7401C68.99 28.6901 66.41 30.5801 63.8 30.5801C60.32 30.5801 57.56 27.8501 57.56 23.5001C57.56 19.1501 60.32 16.6301 63.89 16.6301C66.59 16.6301 68.45 18.1001 68.78 20.3501H73.25C72.98 15.8501 69.2 12.7601 63.92 12.7601C58.37 12.7601 53.27 16.3301 53.27 23.5001C53.27 30.6701 58.22 34.2401 63.59 34.2401Z" fill="#101828"/>
<path d="M74.9028 34.0001H79.0728V12.3101H74.9028V34.0001Z" fill="#101828"/>
<path d="M88.0679 34.2401C92.7179 34.2401 96.0479 30.9401 96.0479 26.4401C96.0479 21.9401 92.7179 18.6401 88.0679 18.6401C83.4179 18.6401 80.0879 21.9401 80.0879 26.4401C80.0879 30.9401 83.4179 34.2401 88.0679 34.2401ZM88.0679 30.6401C85.8179 30.6401 84.2879 28.9301 84.2879 26.4401C84.2879 23.9201 85.8179 22.2101 88.0679 22.2101C90.3179 22.2101 91.8479 23.9201 91.8479 26.4401C91.8479 28.9301 90.3179 30.6401 88.0679 30.6401Z" fill="#101828"/>
<path d="M105.379 34.2401C109.849 34.2401 112.519 31.1501 112.519 26.4401C112.519 21.7301 109.849 18.6401 105.439 18.6401C103.549 18.6401 102.079 19.3601 101.239 20.4701V12.3101H97.0688V34.0001H101.239V32.3501C102.079 33.5201 103.639 34.2401 105.379 34.2401ZM104.719 30.6401C102.469 30.6401 100.999 28.9601 100.999 26.4401C100.999 23.8901 102.469 22.2101 104.719 22.2101C106.909 22.2101 108.409 23.8901 108.409 26.4401C108.409 28.9601 106.909 30.6401 104.719 30.6401Z" fill="#101828"/>
<path d="M119.499 18.6401C115.359 18.6401 112.899 21.0701 112.719 24.1001H116.439C116.499 22.8401 117.429 21.7001 119.259 21.7001C120.969 21.7001 121.959 22.5701 121.959 23.8301C121.959 24.4601 121.569 24.9401 120.819 24.9401H118.269C114.969 24.9401 112.749 26.7401 112.749 29.7101C112.749 32.2901 114.759 34.2401 117.699 34.2401C119.769 34.2401 121.449 33.3101 121.959 31.9001V34.0001H126.099V24.2801C126.099 20.8601 123.309 18.6401 119.499 18.6401ZM118.749 31.2101C117.579 31.2101 116.739 30.5201 116.739 29.5301C116.739 28.3601 117.639 27.5801 118.899 27.5801H121.959V27.7901C121.959 29.7101 120.789 31.2101 118.749 31.2101Z" fill="#101828"/>
<path d="M127.702 34.0001H131.872V12.3101H127.702V34.0001Z" fill="#101828"/>
<path d="M134.087 34.0001H142.667C147.107 34.0001 150.167 31.7201 150.167 27.7301C150.167 24.9701 148.547 23.2901 146.627 22.5401C147.857 21.8801 149.087 20.3801 149.087 18.4001C149.087 14.8901 146.237 13.0001 142.427 13.0001H134.087V34.0001ZM138.527 21.0101V16.5701H142.007C144.017 16.5701 144.917 17.3801 144.917 18.7901C144.917 20.2001 144.017 21.0101 142.097 21.0101H138.527ZM138.527 30.1001V24.8201H142.277C144.767 24.8201 145.877 25.7801 145.877 27.4901C145.877 29.2001 144.767 30.1001 142.277 30.1001H138.527Z" fill="#101828"/>
<path d="M157.421 18.6401C153.281 18.6401 150.821 21.0701 150.641 24.1001H154.361C154.421 22.8401 155.351 21.7001 157.181 21.7001C158.891 21.7001 159.881 22.5701 159.881 23.8301C159.881 24.4601 159.491 24.9401 158.741 24.9401H156.191C152.891 24.9401 150.671 26.7401 150.671 29.7101C150.671 32.2901 152.681 34.2401 155.621 34.2401C157.691 34.2401 159.371 33.3101 159.881 31.9001V34.0001H164.021V24.2801C164.021 20.8601 161.231 18.6401 157.421 18.6401ZM156.671 31.2101C155.501 31.2101 154.661 30.5201 154.661 29.5301C154.661 28.3601 155.561 27.5801 156.821 27.5801H159.881V27.7901C159.881 29.7101 158.711 31.2101 156.671 31.2101Z" fill="#101828"/>
<path d="M165.384 34.0001H169.584V25.7201C169.584 23.7701 170.874 22.3601 172.704 22.3601C174.444 22.3601 175.614 23.6801 175.614 25.5101V34.0001H179.814V24.5801C179.814 21.1001 177.594 18.6401 174.174 18.6401C172.104 18.6401 170.424 19.5101 169.584 20.9801V18.8801H165.384V34.0001Z" fill="#101828"/>
<path d="M191.784 34.0001H196.824L190.314 24.8201L196.344 18.8801H191.064L185.814 24.0401V12.3101H181.614V34.0001H185.814V29.2601L187.494 27.6101L191.784 34.0001Z" fill="#101828"/>
</svg>
