<svg width="24" height="25" viewBox="0 0 24 25" fill="none" xmlns="http://www.w3.org/2000/svg">
<path d="M12.5 2.51228C12.3344 2.50413 12.1677 2.5 12 2.5C6.47715 2.5 2 6.97715 2 12.5C2 18.0228 6.47715 22.5 12 22.5C17.5228 22.5 22 18.0228 22 12.5C22 11.6368 21.8906 10.799 21.685 10" stroke="#0A40C0" stroke-width="1.5" stroke-linecap="round" stroke-linejoin="round"/>
<path d="M8 15.5C8.91212 16.7144 10.3643 17.5 12 17.5C13.6357 17.5 15.0879 16.7144 16 15.5" stroke="#0A40C0" stroke-width="1.5" stroke-linecap="round" stroke-linejoin="round"/>
<path d="M10 10H8.70711C8.25435 10 7.82014 10.1799 7.5 10.5M14 10H15.2929C15.7456 10 16.1799 10.1799 16.5 10.5" stroke="#0A40C0" stroke-width="1.5" stroke-linecap="round" stroke-linejoin="round"/>
<path d="M15.8881 2.83113C16.8267 2.28283 17.6459 2.50379 18.138 2.85575C18.3398 3.00007 18.4406 3.07223 18.5 3.07223C18.5594 3.07223 18.6602 3.00007 18.862 2.85575C19.3541 2.50379 20.1733 2.28283 21.1119 2.83113C22.3437 3.55073 22.6224 5.9247 19.7812 7.92753C19.24 8.30901 18.9694 8.49975 18.5 8.49975C18.0306 8.49975 17.76 8.30901 17.2188 7.92753C14.3776 5.9247 14.6563 3.55073 15.8881 2.83113Z" stroke="#0A40C0" stroke-width="1.5" stroke-linecap="round"/>
</svg>
