<svg width="24" height="25" viewBox="0 0 24 25" fill="none" xmlns="http://www.w3.org/2000/svg">
<path d="M12 22.5L10 16.5H2L4 22.5H12ZM12 22.5H16" stroke="#0A40C0" stroke-width="1.5" stroke-linecap="round" stroke-linejoin="round"/>
<path d="M12 13.5V13C12 11.1144 12 10.1716 11.4142 9.58579C10.8284 9 9.88562 9 8 9C6.11438 9 5.17157 9 4.58579 9.58579C4 10.1716 4 11.1144 4 13V13.5" stroke="#0A40C0" stroke-width="1.5" stroke-linecap="round" stroke-linejoin="round"/>
<path d="M19 13.5C19 14.6046 18.1046 15.5 17 15.5C15.8954 15.5 15 14.6046 15 13.5C15 12.3954 15.8954 11.5 17 11.5C18.1046 11.5 19 12.3954 19 13.5Z" stroke="#0A40C0" stroke-width="1.5"/>
<path d="M10 4.5C10 5.60457 9.10457 6.5 8 6.5C6.89543 6.5 6 5.60457 6 4.5C6 3.39543 6.89543 2.5 8 2.5C9.10457 2.5 10 3.39543 10 4.5Z" stroke="#0A40C0" stroke-width="1.5"/>
<path d="M14 18H20C21.1046 18 22 18.8954 22 20V20.5C22 21.6046 21.1046 22.5 20 22.5H19" stroke="#0A40C0" stroke-width="1.5" stroke-linecap="round"/>
</svg>
