<svg width="132" height="32" viewBox="0 0 132 32" fill="none" xmlns="http://www.w3.org/2000/svg">
<path fill-rule="evenodd" clip-rule="evenodd" d="M6.66669 6.66675C5.60582 6.66675 4.58841 7.08818 3.83826 7.83832C3.08811 8.58847 2.66669 9.60588 2.66669 10.6667V21.3334C2.66669 22.3943 3.08811 23.4117 3.83826 24.1618C4.58841 24.912 5.60582 25.3334 6.66669 25.3334H20C21.0609 25.3334 22.0783 24.912 22.8284 24.1618C23.5786 23.4117 24 22.3943 24 21.3334V19.2187L27.0574 22.2761C27.2438 22.4625 27.4814 22.5894 27.74 22.6409C27.9986 22.6923 28.2666 22.6659 28.5102 22.565C28.7538 22.4641 28.962 22.2932 29.1086 22.074C29.2551 21.8548 29.3333 21.5971 29.3334 21.3334V10.6667C29.3333 10.4031 29.2551 10.1453 29.1086 9.92614C28.962 9.70692 28.7538 9.53607 28.5102 9.43518C28.2666 9.33428 27.9986 9.30788 27.74 9.3593C27.4814 9.41073 27.2438 9.53767 27.0574 9.72408L24 12.7814V10.6667C24 9.60588 23.5786 8.58847 22.8284 7.83832C22.0783 7.08818 21.0609 6.66675 20 6.66675H6.66669Z" fill="#0A40C0"/>
<path d="M39.2658 7.34H43.5858V20.972H51.2178V24.5H39.2658V7.34ZM54.7505 10.748C53.6705 10.748 52.8305 10.172 52.8305 9.044C52.8305 7.94 53.6705 7.34 54.7505 7.34C55.8305 7.34 56.6705 7.94 56.6705 9.044C56.6705 10.172 55.8305 10.748 54.7505 10.748ZM52.8305 12.212H56.6705V24.5H52.8305V12.212ZM57.5413 12.212H61.3813L63.8773 20.228H63.9253L66.4213 12.212H70.2613L66.0133 24.5H61.7893L57.5413 12.212ZM76.5945 22.004C77.9145 22.004 78.5385 21.38 78.7785 20.78H82.5945C81.9225 23.252 80.0025 24.884 76.6665 24.884C72.5865 24.884 70.1145 22.196 70.1145 18.356C70.1145 14.612 72.5385 11.828 76.4505 11.828C80.6505 11.828 82.7865 14.9 82.7865 19.364H73.9545C73.9545 21.092 75.2265 22.004 76.5945 22.004ZM76.4505 14.468C74.9865 14.468 73.9545 15.332 73.9545 17.036H78.9465C78.9465 15.332 77.9145 14.468 76.4505 14.468ZM90.9898 10.244C89.3578 10.244 88.8538 10.244 88.8538 11.684V12.212H90.9898V15.092H88.8538V24.5H85.0138V15.092H83.1898V12.212H85.0138V11.372C85.0138 8.612 85.8058 7.124 88.6138 7.124C89.6938 7.124 90.2938 7.22 90.9898 7.364V10.244ZM97.8054 22.004C99.1254 22.004 99.7494 21.38 99.9894 20.78H103.805C103.133 23.252 101.213 24.884 97.8774 24.884C93.7974 24.884 91.3254 22.196 91.3254 18.356C91.3254 14.612 93.7494 11.828 97.6614 11.828C101.861 11.828 103.997 14.9 103.997 19.364H95.1654C95.1654 21.092 96.4374 22.004 97.8054 22.004ZM97.6614 14.468C96.1974 14.468 95.1654 15.332 95.1654 17.036H100.157C100.157 15.332 99.1254 14.468 97.6614 14.468ZM111.235 22.004C112.555 22.004 113.179 21.38 113.419 20.78H117.235C116.563 23.252 114.643 24.884 111.307 24.884C107.227 24.884 104.755 22.196 104.755 18.356C104.755 14.612 107.179 11.828 111.091 11.828C115.291 11.828 117.427 14.9 117.427 19.364H108.595C108.595 21.092 109.867 22.004 111.235 22.004ZM111.091 14.468C109.627 14.468 108.595 15.332 108.595 17.036H113.587C113.587 15.332 112.555 14.468 111.091 14.468ZM127.137 7.34H130.977V24.5H127.137V23.276H127.089C126.609 23.924 125.313 24.884 123.537 24.884C120.273 24.884 118.185 22.388 118.185 18.356C118.185 14.324 120.273 11.828 123.537 11.828C125.313 11.828 126.609 12.788 127.089 13.436H127.137V7.34ZM124.545 22.004C126.105 22.004 127.065 20.756 127.065 18.356C127.065 15.956 126.105 14.708 124.545 14.708C122.985 14.708 122.025 15.956 122.025 18.356C122.025 20.756 122.985 22.004 124.545 22.004Z" fill="#1E1E1E"/>
</svg>
